<?xml version="1.0" encoding="utf-8"?>
<!-- Generator: Adobe Illustrator 16.0.0, SVG Export Plug-In . SVG Version: 6.00 Build 0)  -->
<!DOCTYPE svg PUBLIC "-//W3C//DTD SVG 1.1//EN" "http://www.w3.org/Graphics/SVG/1.1/DTD/svg11.dtd">
<svg version="1.1" id="Layer_1" xmlns="http://www.w3.org/2000/svg" xmlns:xlink="http://www.w3.org/1999/xlink" x="0px" y="0px"
	 width="595.279px" height="595.279px" viewBox="0 0.001 595.279 595.279" enable-background="new 0 0.001 595.279 595.279"
	 xml:space="preserve">
<g id="color_x5F_6">
	<g>
		<path fill="#C0C0C0" d="M574.866,566V312.352c-28.238-10.521-63.999-16.812-102.902-16.812
			c-91.321,0-125.732,31.021-163.972,100.9c-37.32,68.205-191.426,114.785-191.426,114.785C67.713,524.148,25.882,541.24,20.713,566
			H574.866z"/>
	</g>
	<g>
		<path fill="#C0C0C0" d="M404.99,292.69c0.011,0.012,0.016,0.018,0.016,0.018l3.281-31.752l-15.426,4.438
			C398.981,280.123,404.719,292.106,404.99,292.69z"/>
	</g>
	<g>
		<path fill="#C0C0C0" d="M514.133,254.766l-5.286,15.154c15.557,3.513,28.651,5.748,29.29,5.863
			c0.015-0.001,0.021-0.001,0.021-0.001L514.133,254.766z"/>
	</g>
	<g>
		<g>
			<g>
				<path fill="#C0C0C0" d="M173.416,101.772c-1.104,0-2-0.896-2-2V81.674c0-1.104,0.896-2,2-2c1.104,0,2,0.896,2,2v18.1
					C175.416,100.877,174.52,101.772,173.416,101.772z"/>
			</g>
			<g>
				<path fill="#C0C0C0" d="M173.416,167.373c-1.104,0-2-0.896-2-2v-18.098c0-1.104,0.896-2,2-2c1.104,0,2,0.896,2,2v18.098
					C175.416,166.477,174.52,167.373,173.416,167.373z"/>
			</g>
		</g>
		<g>
			<g>
				<path fill="#C0C0C0" d="M149.664,125.524h-18.098c-1.104,0-2-0.896-2-2c0-1.104,0.896-2,2-2h18.098c1.104,0,2,0.896,2,2
					C151.664,124.628,150.768,125.524,149.664,125.524z"/>
			</g>
			<g>
				<path fill="#C0C0C0" d="M215.266,125.524H197.17c-1.104,0-2-0.896-2-2c0-1.104,0.896-2,2-2h18.098c1.104,0,2,0.896,2,2
					C217.267,124.628,216.371,125.524,215.266,125.524z"/>
			</g>
		</g>
		<g>
			<g>
				<path fill="#C0C0C0" d="M156.621,108.729c-0.512,0-1.023-0.195-1.414-0.586l-12.798-12.798c-0.781-0.781-0.781-2.048,0-2.828
					c0.78-0.781,2.048-0.781,2.828,0l12.798,12.798c0.781,0.781,0.781,2.047,0,2.828
					C157.645,108.534,157.133,108.729,156.621,108.729z"/>
			</g>
			<g>
				<path fill="#C0C0C0" d="M203.009,155.115c-0.512,0-1.022-0.195-1.413-0.586l-12.799-12.797c-0.78-0.781-0.78-2.047,0-2.828
					s2.048-0.781,2.828,0l12.798,12.797c0.781,0.781,0.781,2.047,0,2.828C204.032,154.92,203.52,155.115,203.009,155.115z"/>
			</g>
		</g>
		<g>
			<g>
				<path fill="#C0C0C0" d="M143.823,155.115c-0.512,0-1.024-0.195-1.415-0.586c-0.781-0.781-0.781-2.047,0-2.829l12.798-12.796
					c0.781-0.78,2.047-0.781,2.829,0c0.781,0.781,0.781,2.047,0,2.829l-12.798,12.796
					C144.846,154.92,144.335,155.115,143.823,155.115z"/>
			</g>
			<g>
				<path fill="#C0C0C0" d="M190.211,108.728c-0.512,0-1.023-0.195-1.414-0.586c-0.78-0.781-0.78-2.047,0-2.828l12.799-12.797
					c0.78-0.781,2.048-0.781,2.827,0c0.781,0.78,0.781,2.047,0,2.828l-12.798,12.797
					C191.234,108.533,190.722,108.728,190.211,108.728z"/>
			</g>
		</g>
	</g>
</g>
<g id="color_x5F_5">
	<g>
		<path fill="#08787D" d="M331.947,565.496c2.077-22.461,21.2-40.061,44.511-40.061c9.826,0,18.878,3.16,26.259,8.461
			c-0.552-2.265-0.871-4.617-0.871-7.047c0-16.657,13.688-30.161,30.571-30.161c12.459,0,23.155,7.369,27.923,17.915
			c1.885-21.425,20.088-38.246,42.295-38.246c23.465,0,42.484,18.766,42.484,41.912c0,5.029-0.945,9.83-2.592,14.298
			c0.854-0.074,1.714-0.127,2.592-0.127c16.122,0,29.198,12.897,29.198,28.806c0,1.445-0.142,2.862-0.351,4.25H331.947z"/>
	</g>
	<g>
		<g>
			<path fill="#08787D" d="M281.252,440.844h0.667c-0.747-5.487-0.645-11.079-0.256-16.603c0.47-6.713,0.98-13.576,3.381-19.923
				c0.488-1.294,2.585-0.734,2.09,0.575c-0.983,2.602-1.645,5.297-2.125,8.033c-0.425,2.896-0.76,5.805-1.01,8.722
				c-0.063,0.867-0.117,1.732-0.169,2.593c-0.331,5.544-0.489,11.112,0.285,16.603h5.736c0.021-2.025,0.188-6.04,0.999-12.181
				c1.226-9.284,3.679-15.6,3.434-24.886c-0.244-9.285-11.529-8.915-16.68,0c-5.152,8.914,0,36.401,0,36.401L281.252,440.844z"/>
		</g>
		<g>
			<path fill="#08787D" d="M274.039,440.844c-1.911-1.96-3.841-3.904-5.786-5.832c-1.271-0.973-2.562-1.934-3.777-2.98
				c-4.561-3.925-9.219-7.712-13.411-12.034c-0.976-1.003,0.558-2.535,1.532-1.53c4.427,4.563,9.313,8.878,14.333,12.779
				c2.488,1.938,5.098,3.767,7.291,5.99c-0.826-3.41-1.48-6.854-1.833-10.343c-4.783-5.739-10.422-11.401-14.946-12.743
				c-9.874-2.924-18.315,4.573-12.104,11.479c6.038,6.713,11.998,9.645,19.012,15.214H274.039L274.039,440.844z"/>
		</g>
		<g>
			<path fill="#08787D" d="M303.079,429.488c4.176-3.694,7.954-7.785,12.543-10.984c1.148-0.806,2.23,1.075,1.095,1.869
				c-4.771,3.329-8.828,7.651-13.148,11.528c-3.203,2.873-6.434,5.721-9.271,8.94h8.822c6.812-5.335,12.643-8.288,18.545-14.852
				c6.212-6.907-2.229-14.401-12.104-11.479c-4.527,1.34-11,7.004-15.781,12.743c-0.44,4.336-0.665,8.604-1.664,12.822
				C295.421,436.211,299.255,432.873,303.079,429.488z"/>
		</g>
	</g>
	<g>
		<path fill="#08787D" d="M229.497,465.08c-0.829,0-1.5-0.672-1.5-1.5c0-0.73,0.523-1.34,1.216-1.473
			c1.536-0.607,11.675-7.004,19.841-12.156c17.744-11.196,18.703-11.661,19.568-11.671c7.404-0.071,13.017-0.316,17.526-0.515
			c17.994-0.783,18.353-0.662,38.497,13.414c0.679,0.475,0.845,1.409,0.37,2.089c-0.477,0.679-1.411,0.843-2.089,0.37
			c-19.498-13.626-19.495-13.628-36.647-12.876c-4.486,0.195-10.057,0.439-17.396,0.516c-1.633,0.738-10.812,6.529-18.229,11.21
			C232.537,463.92,230.469,465.08,229.497,465.08z"/>
	</g>
</g>
<g id="color_x5F_4">
	<g>
		<path fill="#F5A6A3" d="M359.094,128.422h-30.842c-0.188-0.356-0.389-0.705-0.619-1.031c-5.979-8.452-16.614-11.212-23.754-6.163
			c-7.14,5.05-8.079,15.996-2.102,24.447c0.126,0.181,0.249,0.358,0.37,0.539c-0.035,0.367-0.043,0.746-0.005,1.134
			c0.258,2.646-0.574,5.294,1.661,5.075c0.5-0.05,1.114-0.244,1.761-0.537c3.568,6.417,6.189,11.597,11.614,7.76
			c2.419-1.711,5.083-4.996,7.317-8.919l17.071,3.052L359.094,128.422z"/>
	</g>
	<g>
		<path fill="#F5A6A3" d="M87.735,313.607c0.764-10.351-12.432-14.611-15.558-11.023c-6.772,7.775-15.957,39.929-13.84,54.524
			c-2.598,4.563-1.32,15.214,5.996,19.561c4.791,2.848,8.233-4.429,8.233-4.429s5.606-6.652,4.593-8.921
			c-0.973-2.173-5.255-4.606-9.271-6.262c3.583-5.862,6.864-13.621,6.864-13.621S87.3,319.491,87.735,313.607z"/>
	</g>
	<g>
		<path fill="#F5A6A3" d="M201.862,244.901c0.611-0.354,1.128-0.742,1.459-1.12c1.478-1.693-1.16-2.553-3.165-4.303
			c-0.293-0.256-0.604-0.472-0.924-0.655c-0.076-0.203-0.152-0.406-0.225-0.613c-3.402-9.776-12.855-15.376-21.115-12.502
			s-12.195,13.133-8.79,22.911c0.004,0.012,0.01,0.023,0.015,0.036l-12.904,19.222l26.259,7.421l7.439-15.664
			c4.492,0.462,8.714,0.203,11.512-0.771C207.699,256.679,205.008,251.535,201.862,244.901z"/>
	</g>
	<g>
		<path fill="#F5A6A3" d="M297.417,246.737c0,0-7.079-5.05-9.26-3.858c-2.523,1.385-5.039,7.618-6.221,12.263
			c-6.743,2.282-16.833,8.772-16.833,8.772s-22.708,12.094-27.228,16.969c-0.11,0.121-0.223,0.242-0.312,0.354
			c-5.591,7.019,0.01,16.163,4.604,17.726c0.718,0.244,1.41,0.312,2.032,0.147c9.741-2.542,34.483-22.982,41.677-36.281
			c5.272,0.799,13.421-1.705,16.618-8.242C304.947,249.584,297.417,246.737,297.417,246.737z"/>
	</g>
	<g>
		<path fill="#F5A6A3" d="M339.683,199.495c0,0-0.11,6.856,0.538,14.298c-5.922,2.547-24.854,20.48-24.854,20.48
			s-25.853,19.292-20.277,21.944c8.577,4.085,40.104-12.84,54.214-24.454c10.551-4.373,18.555-30.458,20.883-51.726h-28.614
			C340.229,188.919,339.683,199.495,339.683,199.495z"/>
	</g>
	<g>
		<path fill="#F5A6A3" d="M478.302,100.133c-8.545-8.196-30.519-17.031-44.172-19.688c-11.193-5.591-40.084,6.842-57.942,19.407
			c1.123-0.688,1.784-1.063,1.784-1.063l16.105,22.774c8.481-4.139,21.207-13.283,21.207-13.283s5.425-4.196,10.83-9.352
			c5.687,3.033,31.521,6.614,31.521,6.614s8.221,1.839,15.073,2.331c-0.987,4.231-1.496,9.131-0.295,11.187
			c1.259,2.144,9.931,1.447,9.931,1.447s7.92,1.43,8.39-4.126C491.451,107.899,483.527,100.671,478.302,100.133z"/>
	</g>
</g>
<g id="color_x5F_3">
	<g>
		<g>
			<path fill="#240C0D" d="M304.962,142.37c0.473-0.323,1.269,0.039,1.779,0.805c0.519,0.77,0.551,1.653,0.088,1.975
				c-0.471,0.324-1.263-0.042-1.78-0.808C304.531,143.575,304.497,142.69,304.962,142.37z"/>
		</g>
		<g>
			<path fill="#240C0D" d="M328.901,114.934c2.66,4.4,3.113,10.604,2.665,13.195c-0.124,0.698-0.269,1.385-0.438,2.056
				c-0.398,1.555-0.938,3.023-1.583,4.38c-0.012,0.034-0.024,0.062-0.049,0.094c-1.366,2.86-3.229,5.205-5.348,6.798
				c-1.12,0.855-2.309,1.494-3.535,1.893c0.547-0.57,0.991-1.234,1.315-1.96c0.346-0.759,0.544-1.586,0.581-2.458
				c0.095-1.996-0.933-3.894-2.965-4.328c-2.729-0.58-5.354,1.493-6.147,3.99c-0.417,1.307-0.396,2.721-0.066,4.072
				c-3.222-1.809-5.522-5.566-6.396-10.216c0.671-0.84-7.869,4.798-8.536,5.271l-0.104,0.072c-4.637,3.194-11.022,2.019-14.332-2.66
				c-3.329-4.706-2.271-11.188,2.371-14.474c3.436-2.429,7.751-2.057,11.831-4.917c0.931-0.657,1.636-1.174,2.177-1.592
				c2.764-2.136,1.334-1.736,4.578-4.03c0.161-0.114,0.323-0.229,0.484-0.335l0.047-0.033
				C318.61,102.031,325.496,109.299,328.901,114.934z"/>
		</g>
	</g>
	<g>
		<path fill="#240C0D" d="M414.573,301.157L384.852,311.3c0,0-0.04,0.026-0.037,0.012c0.422-0.489,9.313-6.938,20.175-18.619
			L414.573,301.157z"/>
	</g>
	<g>
		<path fill="#240C0D" d="M551.841,273.432l-11.289,29.787c0,0-0.002,0.048-0.014,0.03c-0.132-0.629,0.244-11.732-2.401-27.465
			L551.841,273.432z"/>
	</g>
	<g>
		<g>
			<path fill="#240C0D" d="M194.468,238.879c-0.534,0.194-0.702,1.055-0.379,1.916c0.325,0.867,1.025,1.409,1.557,1.22
				c0.536-0.195,0.701-1.053,0.38-1.917C195.699,239.229,194.999,238.687,194.468,238.879z"/>
		</g>
	</g>
	<g>
		<path fill="#240C0D" d="M49.171,535.837l34.066-14.608c0,0-13.505-0.951-29.165-3.988L49.171,535.837z"/>
	</g>
	<g>
		<path fill="#240C0D" d="M222.132,477.41h31.848c0,0,0.047,0.017,0.034,0.002c-0.548-0.335-11.785-7.384-25.715-15.158
			L222.132,477.41z"/>
	</g>
</g>
<g id="color_x5F_2_1_">
	<g>
		<path fill="#DB4A3E" d="M200.787,217.584c-1.894-5.443-7.783-8.354-13.155-6.482c-3.972,1.382-6.178,5.109-10.876,6.77
			c-1.074,0.374-1.905,0.648-2.562,0.845c-3.344,1.008-2.189,0.076-5.941,1.384c-0.187,0.063-0.375,0.13-0.553,0.198l-0.055,0.021
			c-0.76,0.339-1.465,0.69-2.133,1.051c0-0.004,0-0.008,0-0.012c0-5.136-4.164-9.299-9.301-9.299c-5.136,0-9.299,4.163-9.299,9.299
			s4.163,9.299,9.299,9.299c0.251,0,0.497-0.018,0.743-0.038c-1.311,4.259-0.119,8.565,1.271,11.793
			c2.036,4.725,6.817,8.698,9.188,9.839c0.643,0.307,1.282,0.585,1.927,0.836c1.497,0.58,3.008,0.996,4.484,1.26
			c0.034,0.011,0.065,0.015,0.105,0.016c3.122,0.549,6.11,0.396,8.639-0.399c1.348-0.415,2.559-1.01,3.594-1.775
			c-0.782,0.111-1.581,0.09-2.357-0.069c-0.816-0.16-1.607-0.479-2.34-0.956c-1.679-1.082-2.625-3.02-1.797-4.929
			c1.112-2.56,4.325-3.487,6.819-2.685c1.307,0.421,2.444,1.261,3.354,2.315c0.4-3.674-1.318-7.732-4.595-11.146
			c-1.072,0.058,8.479-3.613,9.25-3.883l0.121-0.042C199.916,228.874,202.67,222.994,200.787,217.584z"/>
	</g>
	<g>
		<path fill="#DB4A3E" d="M242.171,298.963c-4.595-1.563-10.195-10.707-4.604-17.726c0.089-0.112,0.2-0.232,0.312-0.354
			c-6.555-2.166-12.711-3.489-12.711-3.489s-47.761-11.66-59.878-11.978l-5.938-0.921c-0.183-0.047-0.383-0.082-0.616-0.096
			c-17.229-1.033-90.686,28.67-89.864,45.391c0.445,9.059,19.865,2.082,19.865,2.082s24.457-10.152,39.767-17.48
			c-4.222,8.928-7.688,19.758-8.761,32.171c-1.97,22.791-23.727,37.446-23.727,37.446l60.609,0.836c0,0-6.065-5.646-0.413-16.696
			c4.178-8.165,11.375-18.521,17.736-28.484c0.286,0.016,0.567,0.037,0.856,0.037c8.731,0,15.813-6.042,15.813-13.495
			c0.001-3.734-1.776-7.115-4.646-9.558c0.244-0.858,0.435-1.683,0.564-2.469C201.644,299.246,227.269,302.636,242.171,298.963z"/>
	</g>
	<g>
		<path fill="#DB4A3E" d="M514.133,254.767l-1.648-1.44c0,0-26.697-17.335-36.702-20.861c3.997-12.639,6.438-26.065,6.438-26.065
			s0.19-1.526,0.464-4.02c0.063-0.333,0.153-1.185,0.26-2.439c0.86-8.328,3.697-54.674-0.707-60.674
			c-9.822-13.381-22.888-11.141-22.888-11.141l-14.038,10.245c-27.608,18.888-70.956,57.933-67.42,77.987
			c0.133,10.872,7.816,31.827,14.972,49.036l15.426-4.438l0.225-2.175c0,0-1.366-34.313-4.509-43.093
			c11.61-5.087,22.719-11.758,22.719-11.758s8.14-5.284,16.681-11.574c-1.462,25.649,2.424,55.697,17,61.623
			c0.001,0,0.002,0,0.003,0.001c9.085,6.112,30.413,11.878,48.441,15.942L514.133,254.767z"/>
	</g>
</g>
<g id="color_x5F_1_1_">
	<g>
		<path fill="#2E67B1" d="M345.764,128.766c-0.041,0.036-0.073,0.063-0.111,0.098C345.691,128.831,345.727,128.799,345.764,128.766z
			"/>
	</g>
	<g>
		<path fill="#2E67B1" d="M346.422,128.195c-0.12,0.104-0.376,0.328-0.656,0.572C345.953,128.603,346.17,128.415,346.422,128.195z"
			/>
	</g>
	<g>
		<path fill="#2E67B1" d="M346.499,128.127c-0.028,0.026-0.049,0.043-0.077,0.068C346.468,128.155,346.499,128.127,346.499,128.127z
			"/>
	</g>
	<g>
		<path fill="#2E67B1" d="M345.653,128.864c-0.121,0.105-0.24,0.209-0.354,0.308C345.399,129.085,345.521,128.979,345.653,128.864z"
			/>
	</g>
	<g>
		<path fill="#2E67B1" d="M345.017,129.418C344.732,129.667,344.634,129.754,345.017,129.418L345.017,129.418z"/>
	</g>
	<g>
		<path fill="#2E67B1" d="M345.301,129.172c-0.111,0.099-0.208,0.183-0.282,0.246C345.099,129.346,345.196,129.262,345.301,129.172z
			"/>
	</g>
	<g>
		<path fill="#2E67B1" d="M207.986,388.528c-6.915-11.049-29.828-20.143-52.559-25.012l-58.747-1.369
			c-9.729,2.998-16.289,21.368-1.807,31.08c-2.57,8.818-4.372,16.32-4.372,16.32s-5.097,25.056-3.524,39.816
			c-5.286,3.29-9.854,6.488-12.458,8.878c-5.611,5.145-22.156,59.287-22.156,59.287s0.004-0.002,0.018-0.01
			c0.46-0.449,9.219-10.487,21-21.24c14.025-12.802,30.136-34.972,39.599-48.771c2.888-3.556,5.618-7.707,8.132-12.229
			c0.007-0.012,0.015-0.022,0.015-0.022c0-0.001,0-0.003,0-0.004c5.699-10.255,10.284-22.401,13.061-33.806
			c10.368,0.866,18.865,1.242,18.865,1.242s16.855,0.105,32.13-1.603c3.24,9.92,20.368,37.18,20.368,37.18
			s22.75,24.001,22.749,23.985C228.195,461.613,214.288,396.114,207.986,388.528z"/>
	</g>
	<g>
		<g>
			<g>
				<path fill="#2E67B1" d="M386.001,128.127c2.418-1.742,5.191-3.758,8.409-6.098l-0.331-0.468l-16.105-22.774
					c0,0-0.661,0.376-1.784,1.063c-5.765,3.525-23.908,15.385-29.688,28.276c-0.188,0.417-0.271,0.884-0.267,1.381l-4.663,24.271
					c-1.278,3.517,0,26.262,0,26.262h0.001h28.614h0.003c0,0,0.391-2.656,0.761-6.781c16.374,2.183,34.002-1.444,34.002-1.444
					l54.396-43.688H386.001L386.001,128.127z"/>
			</g>
		</g>
	</g>
</g>
</svg>
