<?xml version="1.0" encoding="utf-8"?>
<!-- Generator: Adobe Illustrator 22.1.0, SVG Export Plug-In . SVG Version: 6.00 Build 0)  -->
<svg version="1.1" id="Layer_1" xmlns="http://www.w3.org/2000/svg" xmlns:xlink="http://www.w3.org/1999/xlink" x="0px" y="0px"
	 viewBox="0 0 593.5 116.4" enable-background="new 0 0 593.5 116.4" xml:space="preserve">
<g>
	<rect x="209.6" y="1.4" fill="#5B545A" width="21" height="113.7"/>
	<polygon fill="#5B545A" points="75.5,1.4 75.5,115.1 133.2,115.1 133.2,94.1 96.4,94.1 96.4,68.7 122.7,68.7 122.7,47.7 96.4,47.7 
		96.4,22.3 133.2,22.3 133.2,1.4 	"/>
	<polygon fill="#5B545A" points="360.7,1.4 360.7,58.2 339.6,1.4 318.6,1.4 318.6,115.1 339.6,115.1 339.6,58.2 360.7,115.1 
		381.6,115.1 381.6,1.4 	"/>
	<path fill="#5B545A" d="M271.9,71.7h13.1v17.3c0,2.9-2.3,5.2-5.2,5.2h-10.7c-2.9,0-5.2-2.3-5.2-5.2V27.5c0-2.9,2.3-5.2,5.2-5.2
		h10.7c2.9,0,5.2,2.3,5.2,5.2v19.9l21-21v-4.1h0c0-11.6-9.4-21-21-21h-21c-11.6,0-21,9.4-21,21h0v71.8h0c0,11.6,9.4,21,21,21h21
		c11.6,0,21-9.4,21-21h0V50.7v0h-13.1L271.9,71.7z"/>
	<path fill="#5B545A" d="M458.1,94.1h21v21h-21V94.1z"/>
	<path fill="#5B545A" d="M62.9,22.4c0-11.6-9.4-20.9-21-20.9H21c0,0,0,0,0,0v0H0v113.6h20.9v0c0,0,0,0,0,0h20.9
		c11.6,0,20.9-9.4,21-20.9h0L62.9,22.4L62.9,22.4z M41.9,89c0,2.9-2.3,5.2-5.2,5.2H20.9V22.4h15.8c2.9,0,5.2,2.3,5.2,5.2V89z"/>
	<g>
		<g>
			<polygon fill="#32BDB7" points="547.6,55.9 547.6,55.9 530.3,73.2 539,115.1 559.9,115.1 			"/>
			<polygon fill="#F58428" points="543.1,34.4 536.3,1.4 515.3,1.4 491.7,115.1 512.6,115.1 525.8,51.8 			"/>
		</g>
		<g>
			<polygon fill="#3971B8" points="572.5,69.2 572.5,115.1 593.5,115.1 593.5,48.3 			"/>
			<polygon fill="#DE3173" points="593.5,22.3 593.5,1.4 572.5,1.4 572.5,43.3 			"/>
		</g>
	</g>
	<path fill="#5B545A" d="M194,61.9L194,61.9c0-0.1-0.1-0.1-0.2-0.1c-0.8-0.8-1.7-1.6-2.6-2.3c0,0-0.1-0.1-0.2-0.1
		c-0.6-0.5-1.2-1.1-1.9-1.6c-0.5-0.4-1.1-0.8-1.6-1.2c-1.2-0.9-2.5-1.8-3.7-2.7c-0.6-0.4-1.1-0.8-1.7-1.2c-0.6-0.4-1.2-0.8-1.9-1.2
		c-6.4-4.1-12.6-7.7-16.5-11.6c0,0-0.1-0.1-0.1-0.1l0,0c-4.3-4.3-4.3-11.2,0-15.5c2.1-2.1,5-3.2,7.8-3.2c4,0,8.1,1.5,11.2,4.6
		c1.1,1.1,1.9,2.3,2.6,3.6L200.4,14c-6.8-8.5-17.2-14-28.9-14c-17.6,0-31.9,14.3-31.9,31.9c0,8.8,3.6,16.8,9.4,22.6l0,0
		c0,0,0.1,0.1,0.2,0.1c0.8,0.8,1.7,1.6,2.6,2.3c0,0,0.1,0.1,0.2,0.1c0.6,0.5,1.2,1.1,1.9,1.6c0.5,0.4,1.1,0.8,1.6,1.2
		c1.2,0.9,2.5,1.8,3.7,2.7c0.6,0.4,1.1,0.8,1.7,1.2c0.6,0.4,1.2,0.8,1.9,1.2c6.4,4.1,12.6,7.7,16.5,11.6c0,0,0.1,0.1,0.1,0.1l0,0
		c4.3,4.3,4.3,11.2,0,15.5c-2.1,2.1-5,3.2-7.8,3.2c-4,0-8.1-1.5-11.2-4.6c-1.1-1.1-1.9-2.3-2.6-3.6l-15.2,15.2
		c6.8,8.5,17.2,14,28.9,14c17.6,0,31.9-14.3,31.9-31.9C203.4,75.7,199.8,67.7,194,61.9z"/>
	<path fill="#5B545A" d="M442.4,61.9L442.4,61.9c0-0.1-0.1-0.1-0.2-0.1c-0.8-0.8-1.7-1.6-2.6-2.3c0,0-0.1-0.1-0.2-0.1
		c-0.6-0.5-1.2-1.1-1.9-1.6c-0.5-0.4-1.1-0.8-1.6-1.2c-1.2-0.9-2.5-1.8-3.7-2.7c-0.6-0.4-1.1-0.8-1.7-1.2c-0.6-0.4-1.2-0.8-1.9-1.2
		c-6.4-4.1-12.6-7.7-16.5-11.6c0,0-0.1-0.1-0.1-0.1l0,0c-4.3-4.3-4.3-11.2,0-15.5c2.1-2.1,5-3.2,7.8-3.2c4,0,8.1,1.5,11.2,4.6
		c1.1,1.1,1.9,2.3,2.6,3.6L448.8,14C442,5.5,431.6,0,419.9,0c-17.6,0-31.9,14.3-31.9,31.9c0,8.8,3.6,16.8,9.4,22.6l0,0
		c0,0,0.1,0.1,0.2,0.1c0.8,0.8,1.7,1.6,2.6,2.3c0,0,0.1,0.1,0.2,0.1c0.6,0.5,1.2,1.1,1.9,1.6c0.5,0.4,1.1,0.8,1.6,1.2
		c1.2,0.9,2.5,1.8,3.7,2.7c0.6,0.4,1.1,0.8,1.7,1.2c0.6,0.4,1.2,0.8,1.9,1.2c6.4,4.1,12.6,7.7,16.5,11.6c0,0,0.1,0.1,0.1,0.1l0,0
		c4.3,4.3,4.3,11.2,0,15.5c-2.1,2.1-5,3.2-7.8,3.2c-4,0-8.1-1.5-11.2-4.6c-1.1-1.1-1.9-2.3-2.6-3.6l-15.2,15.2
		c6.8,8.5,17.2,14,28.9,14c17.6,0,31.9-14.3,31.9-31.9C451.8,75.7,448.2,67.7,442.4,61.9z"/>
</g>
</svg>
